<svg width="42" height="42" viewBox="0 0 42 42" fill="none" xmlns="http://www.w3.org/2000/svg">
<path d="M28.5 15V12H22.5V7.5H19.5V12H16.5C15.7046 12.0008 14.942 12.3171 14.3796 12.8796C13.8171 13.442 13.5008 14.2046 13.5 15V19.5C13.5008 20.2954 13.8171 21.058 14.3796 21.6204C14.942 22.1829 15.7046 22.4992 16.5 22.5H25.5V27H13.5V30H19.5V34.5H22.5V30H25.5C26.2954 29.9992 27.058 29.6829 27.6204 29.1204C28.1829 28.558 28.4992 27.7954 28.5 27V22.5C28.4992 21.7046 28.1829 20.942 27.6204 20.3796C27.058 19.8171 26.2954 19.5008 25.5 19.5H16.5V15H28.5Z" fill="#009B5A"/>
<path d="M21 3C24.5601 3 28.0402 4.05568 31.0003 6.03355C33.9604 8.01141 36.2675 10.8226 37.6298 14.1117C38.9922 17.4008 39.3487 21.02 38.6541 24.5116C37.9596 28.0033 36.2453 31.2106 33.7279 33.7279C31.2106 36.2453 28.0033 37.9596 24.5116 38.6541C21.02 39.3487 17.4008 38.9922 14.1117 37.6298C10.8226 36.2675 8.01142 33.9604 6.03356 31.0003C4.05569 28.0402 3.00001 24.5601 3.00001 21C3.01386 16.2304 4.91473 11.66 8.28739 8.28738C11.66 4.91472 16.2304 3.01385 21 3ZM21 0C16.8466 0 12.7865 1.23163 9.33303 3.53914C5.8796 5.84665 3.18798 9.1264 1.59854 12.9636C0.00909895 16.8009 -0.406771 21.0233 0.403519 25.0969C1.21381 29.1705 3.21386 32.9123 6.15077 35.8492C9.08767 38.7861 12.8295 40.7862 16.9031 41.5965C20.9767 42.4068 25.1991 41.9909 29.0364 40.4015C32.8736 38.812 36.1534 36.1204 38.4609 32.667C40.7684 29.2135 42 25.1534 42 21C41.9838 15.4354 39.7661 10.1034 35.8313 6.16868C31.8966 2.23393 26.5646 0.016225 21 0Z" fill="#009B5A"/>
</svg>
