<svg width="23" height="24" viewBox="0 0 23 24" fill="none" xmlns="http://www.w3.org/2000/svg">
<path d="M9.33333 13.3333V8C9.33333 7.26667 8.73333 6.66667 8 6.66667H2.66667V4H9.33333V1.33333H6V0H3.33333V1.33333H1.33333C0.6 1.33333 0 1.93333 0 2.66667V8C0 8.73333 0.6 9.33333 1.33333 9.33333H6.66667V12H0V14.6667H3.33333V16H6V14.6667H8C8.73333 14.6667 9.33333 14.0667 9.33333 13.3333ZM20.7867 12.6933L13.24 20.2267L9.46667 16.4533L7.58667 18.3467L13.24 24L22.6667 14.5733L20.7867 12.6933Z" fill="#009B5A"/>
</svg>
